<svg width="43" height="43" viewBox="0 0 54 54" fill="none" xmlns="http://www.w3.org/2000/svg">
<path fill-rule="evenodd" clip-rule="evenodd" d="M26.8333 2C13.1183 2 2 13.1183 2 26.8333C2 40.5484 13.1183 51.6667 26.8333 51.6667C40.5484 51.6667 51.6667 40.5484 51.6667 26.8333C51.6667 13.1183 40.5484 2 26.8333 2ZM0 26.8333C0 12.0137 12.0137 0 26.8333 0C41.653 0 53.6667 12.0137 53.6667 26.8333C53.6667 41.653 41.653 53.6667 26.8333 53.6667C12.0137 53.6667 0 41.653 0 26.8333Z" fill="white"/>
<path fill-rule="evenodd" clip-rule="evenodd" d="M35.2904 18.3762C35.681 18.7668 35.681 19.3999 35.2904 19.7904L19.7904 35.2904C19.3999 35.681 18.7668 35.681 18.3762 35.2904C17.9857 34.8999 17.9857 34.2668 18.3762 33.8762L33.8762 18.3762C34.2668 17.9857 34.8999 17.9857 35.2904 18.3762Z" fill="white"/>
<path fill-rule="evenodd" clip-rule="evenodd" d="M18.3762 18.3762C18.7668 17.9857 19.3999 17.9857 19.7904 18.3762L35.2904 33.8762C35.681 34.2668 35.681 34.8999 35.2904 35.2904C34.8999 35.681 34.2668 35.681 33.8762 35.2904L18.3762 19.7904C17.9857 19.3999 17.9857 18.7668 18.3762 18.3762Z" fill="white"/>
</svg>
